<mxfile host="Electron" agent="Mozilla/5.0 (Windows NT 10.0; Win64; x64) AppleWebKit/537.36 (KHTML, like Gecko) draw.io/26.0.9 Chrome/128.0.6613.186 Electron/32.2.5 Safari/537.36" version="26.0.9" pages="3">
  <diagram id="R2lEEEUBdFMjLlhIrx00" name="ER図">
    <mxGraphModel dx="1645" dy="598" grid="1" gridSize="10" guides="1" tooltips="1" connect="1" arrows="1" fold="1" page="1" pageScale="1" pageWidth="850" pageHeight="1100" math="0" shadow="0" extFonts="Permanent Marker^https://fonts.googleapis.com/css?family=Permanent+Marker">
      <root>
        <mxCell id="0" />
        <mxCell id="1" parent="0" />
        <mxCell id="C-vyLk0tnHw3VtMMgP7b-23" value="team_pokemon" style="shape=table;startSize=30;container=1;collapsible=1;childLayout=tableLayout;fixedRows=1;rowLines=0;fontStyle=1;align=center;resizeLast=1;strokeColor=default;" parent="1" vertex="1">
          <mxGeometry x="120" y="120" width="250" height="190" as="geometry" />
        </mxCell>
        <mxCell id="C-vyLk0tnHw3VtMMgP7b-24" value="" style="shape=partialRectangle;collapsible=0;dropTarget=0;pointerEvents=0;fillColor=none;points=[[0,0.5],[1,0.5]];portConstraint=eastwest;top=0;left=0;right=0;bottom=1;" parent="C-vyLk0tnHw3VtMMgP7b-23" vertex="1">
          <mxGeometry y="30" width="250" height="30" as="geometry" />
        </mxCell>
        <mxCell id="C-vyLk0tnHw3VtMMgP7b-25" value="PK" style="shape=partialRectangle;overflow=hidden;connectable=0;fillColor=none;top=0;left=0;bottom=0;right=0;fontStyle=1;" parent="C-vyLk0tnHw3VtMMgP7b-24" vertex="1">
          <mxGeometry width="30" height="30" as="geometry">
            <mxRectangle width="30" height="30" as="alternateBounds" />
          </mxGeometry>
        </mxCell>
        <mxCell id="C-vyLk0tnHw3VtMMgP7b-26" value="player_id" style="shape=partialRectangle;overflow=hidden;connectable=0;fillColor=none;top=0;left=0;bottom=0;right=0;align=left;spacingLeft=6;fontStyle=5;" parent="C-vyLk0tnHw3VtMMgP7b-24" vertex="1">
          <mxGeometry x="30" width="220" height="30" as="geometry">
            <mxRectangle width="220" height="30" as="alternateBounds" />
          </mxGeometry>
        </mxCell>
        <mxCell id="PMordIFP9YFSgUBU5cF2-1" style="shape=partialRectangle;collapsible=0;dropTarget=0;pointerEvents=0;fillColor=none;points=[[0,0.5],[1,0.5]];portConstraint=eastwest;top=0;left=0;right=0;bottom=1;" parent="C-vyLk0tnHw3VtMMgP7b-23" vertex="1">
          <mxGeometry y="60" width="250" height="30" as="geometry" />
        </mxCell>
        <mxCell id="PMordIFP9YFSgUBU5cF2-2" value="PK" style="shape=partialRectangle;overflow=hidden;connectable=0;fillColor=none;top=0;left=0;bottom=0;right=0;fontStyle=1;" parent="PMordIFP9YFSgUBU5cF2-1" vertex="1">
          <mxGeometry width="30" height="30" as="geometry">
            <mxRectangle width="30" height="30" as="alternateBounds" />
          </mxGeometry>
        </mxCell>
        <mxCell id="PMordIFP9YFSgUBU5cF2-3" value="pokemon_index" style="shape=partialRectangle;overflow=hidden;connectable=0;fillColor=none;top=0;left=0;bottom=0;right=0;align=left;spacingLeft=6;fontStyle=5;strokeColor=inherit;" parent="PMordIFP9YFSgUBU5cF2-1" vertex="1">
          <mxGeometry x="30" width="220" height="30" as="geometry">
            <mxRectangle width="220" height="30" as="alternateBounds" />
          </mxGeometry>
        </mxCell>
        <mxCell id="PMordIFP9YFSgUBU5cF2-7" style="shape=partialRectangle;collapsible=0;dropTarget=0;pointerEvents=0;fillColor=none;points=[[0,0.5],[1,0.5]];portConstraint=eastwest;top=0;left=0;right=0;bottom=0;" parent="C-vyLk0tnHw3VtMMgP7b-23" vertex="1">
          <mxGeometry y="90" width="250" height="30" as="geometry" />
        </mxCell>
        <mxCell id="PMordIFP9YFSgUBU5cF2-8" value="FK" style="shape=partialRectangle;overflow=hidden;connectable=0;fillColor=none;top=0;left=0;bottom=0;right=0;" parent="PMordIFP9YFSgUBU5cF2-7" vertex="1">
          <mxGeometry width="30" height="30" as="geometry">
            <mxRectangle width="30" height="30" as="alternateBounds" />
          </mxGeometry>
        </mxCell>
        <mxCell id="PMordIFP9YFSgUBU5cF2-9" value="pokemon_id Int NOT NULL" style="shape=partialRectangle;overflow=hidden;connectable=0;fillColor=none;top=0;left=0;bottom=0;right=0;align=left;spacingLeft=6;" parent="PMordIFP9YFSgUBU5cF2-7" vertex="1">
          <mxGeometry x="30" width="220" height="30" as="geometry">
            <mxRectangle width="220" height="30" as="alternateBounds" />
          </mxGeometry>
        </mxCell>
        <mxCell id="PMordIFP9YFSgUBU5cF2-68" style="shape=partialRectangle;collapsible=0;dropTarget=0;pointerEvents=0;fillColor=none;points=[[0,0.5],[1,0.5]];portConstraint=eastwest;top=0;left=0;right=0;bottom=0;" parent="C-vyLk0tnHw3VtMMgP7b-23" vertex="1">
          <mxGeometry y="120" width="250" height="30" as="geometry" />
        </mxCell>
        <mxCell id="PMordIFP9YFSgUBU5cF2-69" style="shape=partialRectangle;overflow=hidden;connectable=0;fillColor=none;top=0;left=0;bottom=0;right=0;" parent="PMordIFP9YFSgUBU5cF2-68" vertex="1">
          <mxGeometry width="30" height="30" as="geometry">
            <mxRectangle width="30" height="30" as="alternateBounds" />
          </mxGeometry>
        </mxCell>
        <mxCell id="PMordIFP9YFSgUBU5cF2-70" value="level Int NOT NULL" style="shape=partialRectangle;overflow=hidden;connectable=0;fillColor=none;top=0;left=0;bottom=0;right=0;align=left;spacingLeft=6;" parent="PMordIFP9YFSgUBU5cF2-68" vertex="1">
          <mxGeometry x="30" width="220" height="30" as="geometry">
            <mxRectangle width="220" height="30" as="alternateBounds" />
          </mxGeometry>
        </mxCell>
        <mxCell id="_KQb2Mtf_g5tQqvPD8Vs-1" style="shape=partialRectangle;collapsible=0;dropTarget=0;pointerEvents=0;fillColor=none;points=[[0,0.5],[1,0.5]];portConstraint=eastwest;top=0;left=0;right=0;bottom=0;" parent="C-vyLk0tnHw3VtMMgP7b-23" vertex="1">
          <mxGeometry y="150" width="250" height="30" as="geometry" />
        </mxCell>
        <mxCell id="_KQb2Mtf_g5tQqvPD8Vs-2" style="shape=partialRectangle;overflow=hidden;connectable=0;fillColor=none;top=0;left=0;bottom=0;right=0;" parent="_KQb2Mtf_g5tQqvPD8Vs-1" vertex="1">
          <mxGeometry width="30" height="30" as="geometry">
            <mxRectangle width="30" height="30" as="alternateBounds" />
          </mxGeometry>
        </mxCell>
        <mxCell id="_KQb2Mtf_g5tQqvPD8Vs-3" value="Exp Int NOT NULL" style="shape=partialRectangle;overflow=hidden;connectable=0;fillColor=none;top=0;left=0;bottom=0;right=0;align=left;spacingLeft=6;" parent="_KQb2Mtf_g5tQqvPD8Vs-1" vertex="1">
          <mxGeometry x="30" width="220" height="30" as="geometry">
            <mxRectangle width="220" height="30" as="alternateBounds" />
          </mxGeometry>
        </mxCell>
        <mxCell id="PMordIFP9YFSgUBU5cF2-31" value="pokemon" style="shape=table;startSize=30;container=1;collapsible=1;childLayout=tableLayout;fixedRows=1;rowLines=0;fontStyle=1;align=center;resizeLast=1;" parent="1" vertex="1">
          <mxGeometry x="440" y="120" width="250" height="459.9999999999999" as="geometry" />
        </mxCell>
        <mxCell id="PMordIFP9YFSgUBU5cF2-35" style="shape=partialRectangle;collapsible=0;dropTarget=0;pointerEvents=0;fillColor=none;points=[[0,0.5],[1,0.5]];portConstraint=eastwest;top=0;left=0;right=0;bottom=1;" parent="PMordIFP9YFSgUBU5cF2-31" vertex="1">
          <mxGeometry y="30" width="250" height="30" as="geometry" />
        </mxCell>
        <mxCell id="PMordIFP9YFSgUBU5cF2-36" value="PK" style="shape=partialRectangle;overflow=hidden;connectable=0;fillColor=none;top=0;left=0;bottom=0;right=0;fontStyle=1;" parent="PMordIFP9YFSgUBU5cF2-35" vertex="1">
          <mxGeometry width="30" height="30" as="geometry">
            <mxRectangle width="30" height="30" as="alternateBounds" />
          </mxGeometry>
        </mxCell>
        <mxCell id="PMordIFP9YFSgUBU5cF2-37" value="pokemon_id" style="shape=partialRectangle;overflow=hidden;connectable=0;fillColor=none;top=0;left=0;bottom=0;right=0;align=left;spacingLeft=6;fontStyle=5;" parent="PMordIFP9YFSgUBU5cF2-35" vertex="1">
          <mxGeometry x="30" width="220" height="30" as="geometry">
            <mxRectangle width="220" height="30" as="alternateBounds" />
          </mxGeometry>
        </mxCell>
        <mxCell id="PMordIFP9YFSgUBU5cF2-41" value="" style="shape=partialRectangle;collapsible=0;dropTarget=0;pointerEvents=0;fillColor=none;points=[[0,0.5],[1,0.5]];portConstraint=eastwest;top=0;left=0;right=0;bottom=0;" parent="PMordIFP9YFSgUBU5cF2-31" vertex="1">
          <mxGeometry y="60" width="250" height="30" as="geometry" />
        </mxCell>
        <mxCell id="PMordIFP9YFSgUBU5cF2-42" value="" style="shape=partialRectangle;overflow=hidden;connectable=0;fillColor=none;top=0;left=0;bottom=0;right=0;" parent="PMordIFP9YFSgUBU5cF2-41" vertex="1">
          <mxGeometry width="30" height="30" as="geometry">
            <mxRectangle width="30" height="30" as="alternateBounds" />
          </mxGeometry>
        </mxCell>
        <mxCell id="PMordIFP9YFSgUBU5cF2-43" value="name char(10) NOT NULL" style="shape=partialRectangle;overflow=hidden;connectable=0;fillColor=none;top=0;left=0;bottom=0;right=0;align=left;spacingLeft=6;" parent="PMordIFP9YFSgUBU5cF2-41" vertex="1">
          <mxGeometry x="30" width="220" height="30" as="geometry">
            <mxRectangle width="220" height="30" as="alternateBounds" />
          </mxGeometry>
        </mxCell>
        <mxCell id="ChUbVJP7CGtP9hk6e_pp-7" style="shape=partialRectangle;collapsible=0;dropTarget=0;pointerEvents=0;fillColor=none;points=[[0,0.5],[1,0.5]];portConstraint=eastwest;top=0;left=0;right=0;bottom=0;" parent="PMordIFP9YFSgUBU5cF2-31" vertex="1">
          <mxGeometry y="90" width="250" height="30" as="geometry" />
        </mxCell>
        <mxCell id="ChUbVJP7CGtP9hk6e_pp-8" style="shape=partialRectangle;overflow=hidden;connectable=0;fillColor=none;top=0;left=0;bottom=0;right=0;" parent="ChUbVJP7CGtP9hk6e_pp-7" vertex="1">
          <mxGeometry width="30" height="30" as="geometry">
            <mxRectangle width="30" height="30" as="alternateBounds" />
          </mxGeometry>
        </mxCell>
        <mxCell id="ChUbVJP7CGtP9hk6e_pp-9" value="type char(10) NOT NULL" style="shape=partialRectangle;overflow=hidden;connectable=0;fillColor=none;top=0;left=0;bottom=0;right=0;align=left;spacingLeft=6;" parent="ChUbVJP7CGtP9hk6e_pp-7" vertex="1">
          <mxGeometry x="30" width="220" height="30" as="geometry">
            <mxRectangle width="220" height="30" as="alternateBounds" />
          </mxGeometry>
        </mxCell>
        <mxCell id="mky3SuFBmXc0vUIe23Fq-1" style="shape=partialRectangle;collapsible=0;dropTarget=0;pointerEvents=0;fillColor=none;points=[[0,0.5],[1,0.5]];portConstraint=eastwest;top=0;left=0;right=0;bottom=0;" parent="PMordIFP9YFSgUBU5cF2-31" vertex="1">
          <mxGeometry y="120" width="250" height="30" as="geometry" />
        </mxCell>
        <mxCell id="mky3SuFBmXc0vUIe23Fq-2" style="shape=partialRectangle;overflow=hidden;connectable=0;fillColor=none;top=0;left=0;bottom=0;right=0;" parent="mky3SuFBmXc0vUIe23Fq-1" vertex="1">
          <mxGeometry width="30" height="30" as="geometry">
            <mxRectangle width="30" height="30" as="alternateBounds" />
          </mxGeometry>
        </mxCell>
        <mxCell id="mky3SuFBmXc0vUIe23Fq-3" value="front_image Text NOT NULL" style="shape=partialRectangle;overflow=hidden;connectable=0;fillColor=none;top=0;left=0;bottom=0;right=0;align=left;spacingLeft=6;" parent="mky3SuFBmXc0vUIe23Fq-1" vertex="1">
          <mxGeometry x="30" width="220" height="30" as="geometry">
            <mxRectangle width="220" height="30" as="alternateBounds" />
          </mxGeometry>
        </mxCell>
        <mxCell id="mky3SuFBmXc0vUIe23Fq-4" style="shape=partialRectangle;collapsible=0;dropTarget=0;pointerEvents=0;fillColor=none;points=[[0,0.5],[1,0.5]];portConstraint=eastwest;top=0;left=0;right=0;bottom=0;" parent="PMordIFP9YFSgUBU5cF2-31" vertex="1">
          <mxGeometry y="150" width="250" height="30" as="geometry" />
        </mxCell>
        <mxCell id="mky3SuFBmXc0vUIe23Fq-5" style="shape=partialRectangle;overflow=hidden;connectable=0;fillColor=none;top=0;left=0;bottom=0;right=0;" parent="mky3SuFBmXc0vUIe23Fq-4" vertex="1">
          <mxGeometry width="30" height="30" as="geometry">
            <mxRectangle width="30" height="30" as="alternateBounds" />
          </mxGeometry>
        </mxCell>
        <mxCell id="mky3SuFBmXc0vUIe23Fq-6" value="back_image Text NOT NULL" style="shape=partialRectangle;overflow=hidden;connectable=0;fillColor=none;top=0;left=0;bottom=0;right=0;align=left;spacingLeft=6;" parent="mky3SuFBmXc0vUIe23Fq-4" vertex="1">
          <mxGeometry x="30" width="220" height="30" as="geometry">
            <mxRectangle width="220" height="30" as="alternateBounds" />
          </mxGeometry>
        </mxCell>
        <mxCell id="PMordIFP9YFSgUBU5cF2-47" style="shape=partialRectangle;collapsible=0;dropTarget=0;pointerEvents=0;fillColor=none;points=[[0,0.5],[1,0.5]];portConstraint=eastwest;top=0;left=0;right=0;bottom=0;" parent="PMordIFP9YFSgUBU5cF2-31" vertex="1">
          <mxGeometry y="180" width="250" height="30" as="geometry" />
        </mxCell>
        <mxCell id="PMordIFP9YFSgUBU5cF2-48" style="shape=partialRectangle;overflow=hidden;connectable=0;fillColor=none;top=0;left=0;bottom=0;right=0;" parent="PMordIFP9YFSgUBU5cF2-47" vertex="1">
          <mxGeometry width="30" height="30" as="geometry">
            <mxRectangle width="30" height="30" as="alternateBounds" />
          </mxGeometry>
        </mxCell>
        <mxCell id="PMordIFP9YFSgUBU5cF2-49" value="base_hp int NOT NULL" style="shape=partialRectangle;overflow=hidden;connectable=0;fillColor=none;top=0;left=0;bottom=0;right=0;align=left;spacingLeft=6;" parent="PMordIFP9YFSgUBU5cF2-47" vertex="1">
          <mxGeometry x="30" width="220" height="30" as="geometry">
            <mxRectangle width="220" height="30" as="alternateBounds" />
          </mxGeometry>
        </mxCell>
        <mxCell id="PMordIFP9YFSgUBU5cF2-50" style="shape=partialRectangle;collapsible=0;dropTarget=0;pointerEvents=0;fillColor=none;points=[[0,0.5],[1,0.5]];portConstraint=eastwest;top=0;left=0;right=0;bottom=0;" parent="PMordIFP9YFSgUBU5cF2-31" vertex="1">
          <mxGeometry y="210" width="250" height="30" as="geometry" />
        </mxCell>
        <mxCell id="PMordIFP9YFSgUBU5cF2-51" style="shape=partialRectangle;overflow=hidden;connectable=0;fillColor=none;top=0;left=0;bottom=0;right=0;" parent="PMordIFP9YFSgUBU5cF2-50" vertex="1">
          <mxGeometry width="30" height="30" as="geometry">
            <mxRectangle width="30" height="30" as="alternateBounds" />
          </mxGeometry>
        </mxCell>
        <mxCell id="PMordIFP9YFSgUBU5cF2-52" value="base_attack int NOT NULL" style="shape=partialRectangle;overflow=hidden;connectable=0;fillColor=none;top=0;left=0;bottom=0;right=0;align=left;spacingLeft=6;" parent="PMordIFP9YFSgUBU5cF2-50" vertex="1">
          <mxGeometry x="30" width="220" height="30" as="geometry">
            <mxRectangle width="220" height="30" as="alternateBounds" />
          </mxGeometry>
        </mxCell>
        <mxCell id="PMordIFP9YFSgUBU5cF2-53" style="shape=partialRectangle;collapsible=0;dropTarget=0;pointerEvents=0;fillColor=none;points=[[0,0.5],[1,0.5]];portConstraint=eastwest;top=0;left=0;right=0;bottom=0;" parent="PMordIFP9YFSgUBU5cF2-31" vertex="1">
          <mxGeometry y="240" width="250" height="30" as="geometry" />
        </mxCell>
        <mxCell id="PMordIFP9YFSgUBU5cF2-54" style="shape=partialRectangle;overflow=hidden;connectable=0;fillColor=none;top=0;left=0;bottom=0;right=0;" parent="PMordIFP9YFSgUBU5cF2-53" vertex="1">
          <mxGeometry width="30" height="30" as="geometry">
            <mxRectangle width="30" height="30" as="alternateBounds" />
          </mxGeometry>
        </mxCell>
        <mxCell id="PMordIFP9YFSgUBU5cF2-55" value="base_defence int NOT NULL" style="shape=partialRectangle;overflow=hidden;connectable=0;fillColor=none;top=0;left=0;bottom=0;right=0;align=left;spacingLeft=6;" parent="PMordIFP9YFSgUBU5cF2-53" vertex="1">
          <mxGeometry x="30" width="220" height="30" as="geometry">
            <mxRectangle width="220" height="30" as="alternateBounds" />
          </mxGeometry>
        </mxCell>
        <mxCell id="PMordIFP9YFSgUBU5cF2-56" style="shape=partialRectangle;collapsible=0;dropTarget=0;pointerEvents=0;fillColor=none;points=[[0,0.5],[1,0.5]];portConstraint=eastwest;top=0;left=0;right=0;bottom=0;" parent="PMordIFP9YFSgUBU5cF2-31" vertex="1">
          <mxGeometry y="270" width="250" height="30" as="geometry" />
        </mxCell>
        <mxCell id="PMordIFP9YFSgUBU5cF2-57" style="shape=partialRectangle;overflow=hidden;connectable=0;fillColor=none;top=0;left=0;bottom=0;right=0;" parent="PMordIFP9YFSgUBU5cF2-56" vertex="1">
          <mxGeometry width="30" height="30" as="geometry">
            <mxRectangle width="30" height="30" as="alternateBounds" />
          </mxGeometry>
        </mxCell>
        <mxCell id="PMordIFP9YFSgUBU5cF2-58" value="base_special_attack NOT NULL" style="shape=partialRectangle;overflow=hidden;connectable=0;fillColor=none;top=0;left=0;bottom=0;right=0;align=left;spacingLeft=6;" parent="PMordIFP9YFSgUBU5cF2-56" vertex="1">
          <mxGeometry x="30" width="220" height="30" as="geometry">
            <mxRectangle width="220" height="30" as="alternateBounds" />
          </mxGeometry>
        </mxCell>
        <mxCell id="PMordIFP9YFSgUBU5cF2-59" style="shape=partialRectangle;collapsible=0;dropTarget=0;pointerEvents=0;fillColor=none;points=[[0,0.5],[1,0.5]];portConstraint=eastwest;top=0;left=0;right=0;bottom=0;" parent="PMordIFP9YFSgUBU5cF2-31" vertex="1">
          <mxGeometry y="300" width="250" height="30" as="geometry" />
        </mxCell>
        <mxCell id="PMordIFP9YFSgUBU5cF2-60" style="shape=partialRectangle;overflow=hidden;connectable=0;fillColor=none;top=0;left=0;bottom=0;right=0;" parent="PMordIFP9YFSgUBU5cF2-59" vertex="1">
          <mxGeometry width="30" height="30" as="geometry">
            <mxRectangle width="30" height="30" as="alternateBounds" />
          </mxGeometry>
        </mxCell>
        <mxCell id="PMordIFP9YFSgUBU5cF2-61" value="base_special_defence int NOT NULL" style="shape=partialRectangle;overflow=hidden;connectable=0;fillColor=none;top=0;left=0;bottom=0;right=0;align=left;spacingLeft=6;" parent="PMordIFP9YFSgUBU5cF2-59" vertex="1">
          <mxGeometry x="30" width="220" height="30" as="geometry">
            <mxRectangle width="220" height="30" as="alternateBounds" />
          </mxGeometry>
        </mxCell>
        <mxCell id="PMordIFP9YFSgUBU5cF2-62" style="shape=partialRectangle;collapsible=0;dropTarget=0;pointerEvents=0;fillColor=none;points=[[0,0.5],[1,0.5]];portConstraint=eastwest;top=0;left=0;right=0;bottom=0;" parent="PMordIFP9YFSgUBU5cF2-31" vertex="1">
          <mxGeometry y="330" width="250" height="30" as="geometry" />
        </mxCell>
        <mxCell id="PMordIFP9YFSgUBU5cF2-63" style="shape=partialRectangle;overflow=hidden;connectable=0;fillColor=none;top=0;left=0;bottom=0;right=0;" parent="PMordIFP9YFSgUBU5cF2-62" vertex="1">
          <mxGeometry width="30" height="30" as="geometry">
            <mxRectangle width="30" height="30" as="alternateBounds" />
          </mxGeometry>
        </mxCell>
        <mxCell id="PMordIFP9YFSgUBU5cF2-64" value="base_speed int NOT NULL" style="shape=partialRectangle;overflow=hidden;connectable=0;fillColor=none;top=0;left=0;bottom=0;right=0;align=left;spacingLeft=6;" parent="PMordIFP9YFSgUBU5cF2-62" vertex="1">
          <mxGeometry x="30" width="220" height="30" as="geometry">
            <mxRectangle width="220" height="30" as="alternateBounds" />
          </mxGeometry>
        </mxCell>
        <mxCell id="_KQb2Mtf_g5tQqvPD8Vs-16" style="shape=partialRectangle;collapsible=0;dropTarget=0;pointerEvents=0;fillColor=none;points=[[0,0.5],[1,0.5]];portConstraint=eastwest;top=0;left=0;right=0;bottom=0;" parent="PMordIFP9YFSgUBU5cF2-31" vertex="1">
          <mxGeometry y="360" width="250" height="30" as="geometry" />
        </mxCell>
        <mxCell id="_KQb2Mtf_g5tQqvPD8Vs-17" value="FK" style="shape=partialRectangle;overflow=hidden;connectable=0;fillColor=none;top=0;left=0;bottom=0;right=0;" parent="_KQb2Mtf_g5tQqvPD8Vs-16" vertex="1">
          <mxGeometry width="30" height="30" as="geometry">
            <mxRectangle width="30" height="30" as="alternateBounds" />
          </mxGeometry>
        </mxCell>
        <mxCell id="_KQb2Mtf_g5tQqvPD8Vs-18" value="move1_id Int NOT NULL" style="shape=partialRectangle;overflow=hidden;connectable=0;fillColor=none;top=0;left=0;bottom=0;right=0;align=left;spacingLeft=6;" parent="_KQb2Mtf_g5tQqvPD8Vs-16" vertex="1">
          <mxGeometry x="30" width="220" height="30" as="geometry">
            <mxRectangle width="220" height="30" as="alternateBounds" />
          </mxGeometry>
        </mxCell>
        <mxCell id="_KQb2Mtf_g5tQqvPD8Vs-13" style="shape=partialRectangle;collapsible=0;dropTarget=0;pointerEvents=0;fillColor=none;points=[[0,0.5],[1,0.5]];portConstraint=eastwest;top=0;left=0;right=0;bottom=0;" parent="PMordIFP9YFSgUBU5cF2-31" vertex="1">
          <mxGeometry y="390" width="250" height="30" as="geometry" />
        </mxCell>
        <mxCell id="_KQb2Mtf_g5tQqvPD8Vs-14" value="FK" style="shape=partialRectangle;overflow=hidden;connectable=0;fillColor=none;top=0;left=0;bottom=0;right=0;" parent="_KQb2Mtf_g5tQqvPD8Vs-13" vertex="1">
          <mxGeometry width="30" height="30" as="geometry">
            <mxRectangle width="30" height="30" as="alternateBounds" />
          </mxGeometry>
        </mxCell>
        <mxCell id="_KQb2Mtf_g5tQqvPD8Vs-15" value="move2_id Int NOT NULL" style="shape=partialRectangle;overflow=hidden;connectable=0;fillColor=none;top=0;left=0;bottom=0;right=0;align=left;spacingLeft=6;" parent="_KQb2Mtf_g5tQqvPD8Vs-13" vertex="1">
          <mxGeometry x="30" width="220" height="30" as="geometry">
            <mxRectangle width="220" height="30" as="alternateBounds" />
          </mxGeometry>
        </mxCell>
        <mxCell id="PMordIFP9YFSgUBU5cF2-65" style="shape=partialRectangle;collapsible=0;dropTarget=0;pointerEvents=0;fillColor=none;points=[[0,0.5],[1,0.5]];portConstraint=eastwest;top=0;left=0;right=0;bottom=0;" parent="PMordIFP9YFSgUBU5cF2-31" vertex="1">
          <mxGeometry y="420" width="250" height="30" as="geometry" />
        </mxCell>
        <mxCell id="PMordIFP9YFSgUBU5cF2-66" style="shape=partialRectangle;overflow=hidden;connectable=0;fillColor=none;top=0;left=0;bottom=0;right=0;" parent="PMordIFP9YFSgUBU5cF2-65" vertex="1">
          <mxGeometry width="30" height="30" as="geometry">
            <mxRectangle width="30" height="30" as="alternateBounds" />
          </mxGeometry>
        </mxCell>
        <mxCell id="PMordIFP9YFSgUBU5cF2-67" value="is_evolve Bool Not Null" style="shape=partialRectangle;overflow=hidden;connectable=0;fillColor=none;top=0;left=0;bottom=0;right=0;align=left;spacingLeft=6;" parent="PMordIFP9YFSgUBU5cF2-65" vertex="1">
          <mxGeometry x="30" width="220" height="30" as="geometry">
            <mxRectangle width="220" height="30" as="alternateBounds" />
          </mxGeometry>
        </mxCell>
        <mxCell id="PMordIFP9YFSgUBU5cF2-71" value="player" style="shape=table;startSize=30;container=1;collapsible=1;childLayout=tableLayout;fixedRows=1;rowLines=0;fontStyle=1;align=center;resizeLast=1;" parent="1" vertex="1">
          <mxGeometry x="-210" y="120" width="250" height="100" as="geometry" />
        </mxCell>
        <mxCell id="PMordIFP9YFSgUBU5cF2-72" value="" style="shape=partialRectangle;collapsible=0;dropTarget=0;pointerEvents=0;fillColor=none;points=[[0,0.5],[1,0.5]];portConstraint=eastwest;top=0;left=0;right=0;bottom=1;" parent="PMordIFP9YFSgUBU5cF2-71" vertex="1">
          <mxGeometry y="30" width="250" height="30" as="geometry" />
        </mxCell>
        <mxCell id="PMordIFP9YFSgUBU5cF2-73" value="PK" style="shape=partialRectangle;overflow=hidden;connectable=0;fillColor=none;top=0;left=0;bottom=0;right=0;fontStyle=1;" parent="PMordIFP9YFSgUBU5cF2-72" vertex="1">
          <mxGeometry width="30" height="30" as="geometry">
            <mxRectangle width="30" height="30" as="alternateBounds" />
          </mxGeometry>
        </mxCell>
        <mxCell id="PMordIFP9YFSgUBU5cF2-74" value="player_id" style="shape=partialRectangle;overflow=hidden;connectable=0;fillColor=none;top=0;left=0;bottom=0;right=0;align=left;spacingLeft=6;fontStyle=5;" parent="PMordIFP9YFSgUBU5cF2-72" vertex="1">
          <mxGeometry x="30" width="220" height="30" as="geometry">
            <mxRectangle width="220" height="30" as="alternateBounds" />
          </mxGeometry>
        </mxCell>
        <mxCell id="PMordIFP9YFSgUBU5cF2-75" value="" style="shape=partialRectangle;collapsible=0;dropTarget=0;pointerEvents=0;fillColor=none;points=[[0,0.5],[1,0.5]];portConstraint=eastwest;top=0;left=0;right=0;bottom=0;" parent="PMordIFP9YFSgUBU5cF2-71" vertex="1">
          <mxGeometry y="60" width="250" height="30" as="geometry" />
        </mxCell>
        <mxCell id="PMordIFP9YFSgUBU5cF2-76" value="" style="shape=partialRectangle;overflow=hidden;connectable=0;fillColor=none;top=0;left=0;bottom=0;right=0;" parent="PMordIFP9YFSgUBU5cF2-75" vertex="1">
          <mxGeometry width="30" height="30" as="geometry">
            <mxRectangle width="30" height="30" as="alternateBounds" />
          </mxGeometry>
        </mxCell>
        <mxCell id="PMordIFP9YFSgUBU5cF2-77" value="name varchar(10) NOT NULL" style="shape=partialRectangle;overflow=hidden;connectable=0;fillColor=none;top=0;left=0;bottom=0;right=0;align=left;spacingLeft=6;" parent="PMordIFP9YFSgUBU5cF2-75" vertex="1">
          <mxGeometry x="30" width="220" height="30" as="geometry">
            <mxRectangle width="220" height="30" as="alternateBounds" />
          </mxGeometry>
        </mxCell>
        <mxCell id="PMordIFP9YFSgUBU5cF2-85" value="" style="edgeStyle=entityRelationEdgeStyle;fontSize=12;html=1;endArrow=ERoneToMany;rounded=0;exitX=1;exitY=0.5;exitDx=0;exitDy=0;entryX=0;entryY=0.5;entryDx=0;entryDy=0;" parent="1" source="PMordIFP9YFSgUBU5cF2-72" target="C-vyLk0tnHw3VtMMgP7b-24" edge="1">
          <mxGeometry width="100" height="100" relative="1" as="geometry">
            <mxPoint x="270" y="320" as="sourcePoint" />
            <mxPoint x="370" y="220" as="targetPoint" />
          </mxGeometry>
        </mxCell>
        <mxCell id="2iEUzzYOUyshjoA6yyhH-1" value="DataBase" style="swimlane;whiteSpace=wrap;html=1;strokeColor=default;" parent="1" vertex="1">
          <mxGeometry x="-250" y="70" width="1010" height="1220" as="geometry" />
        </mxCell>
        <mxCell id="aegGA6woRjyQkEvJzV3C-7" value="move" style="shape=table;startSize=30;container=1;collapsible=1;childLayout=tableLayout;fixedRows=1;rowLines=0;fontStyle=1;align=center;resizeLast=1;" parent="2iEUzzYOUyshjoA6yyhH-1" vertex="1">
          <mxGeometry x="370" y="510" width="250" height="460" as="geometry" />
        </mxCell>
        <mxCell id="aegGA6woRjyQkEvJzV3C-8" style="shape=partialRectangle;collapsible=0;dropTarget=0;pointerEvents=0;fillColor=none;points=[[0,0.5],[1,0.5]];portConstraint=eastwest;top=0;left=0;right=0;bottom=1;" parent="aegGA6woRjyQkEvJzV3C-7" vertex="1">
          <mxGeometry y="30" width="250" height="30" as="geometry" />
        </mxCell>
        <mxCell id="aegGA6woRjyQkEvJzV3C-9" value="PK" style="shape=partialRectangle;overflow=hidden;connectable=0;fillColor=none;top=0;left=0;bottom=0;right=0;fontStyle=1;" parent="aegGA6woRjyQkEvJzV3C-8" vertex="1">
          <mxGeometry width="30" height="30" as="geometry">
            <mxRectangle width="30" height="30" as="alternateBounds" />
          </mxGeometry>
        </mxCell>
        <mxCell id="aegGA6woRjyQkEvJzV3C-10" value="move_id" style="shape=partialRectangle;overflow=hidden;connectable=0;fillColor=none;top=0;left=0;bottom=0;right=0;align=left;spacingLeft=6;fontStyle=5;" parent="aegGA6woRjyQkEvJzV3C-8" vertex="1">
          <mxGeometry x="30" width="220" height="30" as="geometry">
            <mxRectangle width="220" height="30" as="alternateBounds" />
          </mxGeometry>
        </mxCell>
        <mxCell id="aegGA6woRjyQkEvJzV3C-11" value="" style="shape=partialRectangle;collapsible=0;dropTarget=0;pointerEvents=0;fillColor=none;points=[[0,0.5],[1,0.5]];portConstraint=eastwest;top=0;left=0;right=0;bottom=0;" parent="aegGA6woRjyQkEvJzV3C-7" vertex="1">
          <mxGeometry y="60" width="250" height="30" as="geometry" />
        </mxCell>
        <mxCell id="aegGA6woRjyQkEvJzV3C-12" value="" style="shape=partialRectangle;overflow=hidden;connectable=0;fillColor=none;top=0;left=0;bottom=0;right=0;" parent="aegGA6woRjyQkEvJzV3C-11" vertex="1">
          <mxGeometry width="30" height="30" as="geometry">
            <mxRectangle width="30" height="30" as="alternateBounds" />
          </mxGeometry>
        </mxCell>
        <mxCell id="aegGA6woRjyQkEvJzV3C-13" value="name char(10) NOT NULL" style="shape=partialRectangle;overflow=hidden;connectable=0;fillColor=none;top=0;left=0;bottom=0;right=0;align=left;spacingLeft=6;" parent="aegGA6woRjyQkEvJzV3C-11" vertex="1">
          <mxGeometry x="30" width="220" height="30" as="geometry">
            <mxRectangle width="220" height="30" as="alternateBounds" />
          </mxGeometry>
        </mxCell>
        <mxCell id="ChUbVJP7CGtP9hk6e_pp-12" style="shape=partialRectangle;collapsible=0;dropTarget=0;pointerEvents=0;fillColor=none;points=[[0,0.5],[1,0.5]];portConstraint=eastwest;top=0;left=0;right=0;bottom=0;" parent="aegGA6woRjyQkEvJzV3C-7" vertex="1">
          <mxGeometry y="90" width="250" height="30" as="geometry" />
        </mxCell>
        <mxCell id="ChUbVJP7CGtP9hk6e_pp-13" style="shape=partialRectangle;overflow=hidden;connectable=0;fillColor=none;top=0;left=0;bottom=0;right=0;" parent="ChUbVJP7CGtP9hk6e_pp-12" vertex="1">
          <mxGeometry width="30" height="30" as="geometry">
            <mxRectangle width="30" height="30" as="alternateBounds" />
          </mxGeometry>
        </mxCell>
        <mxCell id="ChUbVJP7CGtP9hk6e_pp-14" value="type char(10) NOT NULL" style="shape=partialRectangle;overflow=hidden;connectable=0;fillColor=none;top=0;left=0;bottom=0;right=0;align=left;spacingLeft=6;" parent="ChUbVJP7CGtP9hk6e_pp-12" vertex="1">
          <mxGeometry x="30" width="220" height="30" as="geometry">
            <mxRectangle width="220" height="30" as="alternateBounds" />
          </mxGeometry>
        </mxCell>
        <mxCell id="aegGA6woRjyQkEvJzV3C-14" style="shape=partialRectangle;collapsible=0;dropTarget=0;pointerEvents=0;fillColor=none;points=[[0,0.5],[1,0.5]];portConstraint=eastwest;top=0;left=0;right=0;bottom=0;" parent="aegGA6woRjyQkEvJzV3C-7" vertex="1">
          <mxGeometry y="120" width="250" height="30" as="geometry" />
        </mxCell>
        <mxCell id="aegGA6woRjyQkEvJzV3C-15" style="shape=partialRectangle;overflow=hidden;connectable=0;fillColor=none;top=0;left=0;bottom=0;right=0;" parent="aegGA6woRjyQkEvJzV3C-14" vertex="1">
          <mxGeometry width="30" height="30" as="geometry">
            <mxRectangle width="30" height="30" as="alternateBounds" />
          </mxGeometry>
        </mxCell>
        <mxCell id="aegGA6woRjyQkEvJzV3C-16" value="description Text NOT NULL" style="shape=partialRectangle;overflow=hidden;connectable=0;fillColor=none;top=0;left=0;bottom=0;right=0;align=left;spacingLeft=6;" parent="aegGA6woRjyQkEvJzV3C-14" vertex="1">
          <mxGeometry x="30" width="220" height="30" as="geometry">
            <mxRectangle width="220" height="30" as="alternateBounds" />
          </mxGeometry>
        </mxCell>
        <mxCell id="aegGA6woRjyQkEvJzV3C-17" style="shape=partialRectangle;collapsible=0;dropTarget=0;pointerEvents=0;fillColor=none;points=[[0,0.5],[1,0.5]];portConstraint=eastwest;top=0;left=0;right=0;bottom=0;" parent="aegGA6woRjyQkEvJzV3C-7" vertex="1">
          <mxGeometry y="150" width="250" height="30" as="geometry" />
        </mxCell>
        <mxCell id="aegGA6woRjyQkEvJzV3C-18" style="shape=partialRectangle;overflow=hidden;connectable=0;fillColor=none;top=0;left=0;bottom=0;right=0;" parent="aegGA6woRjyQkEvJzV3C-17" vertex="1">
          <mxGeometry width="30" height="30" as="geometry">
            <mxRectangle width="30" height="30" as="alternateBounds" />
          </mxGeometry>
        </mxCell>
        <mxCell id="aegGA6woRjyQkEvJzV3C-19" value="power Int NOT NULL" style="shape=partialRectangle;overflow=hidden;connectable=0;fillColor=none;top=0;left=0;bottom=0;right=0;align=left;spacingLeft=6;" parent="aegGA6woRjyQkEvJzV3C-17" vertex="1">
          <mxGeometry x="30" width="220" height="30" as="geometry">
            <mxRectangle width="220" height="30" as="alternateBounds" />
          </mxGeometry>
        </mxCell>
        <mxCell id="aegGA6woRjyQkEvJzV3C-20" style="shape=partialRectangle;collapsible=0;dropTarget=0;pointerEvents=0;fillColor=none;points=[[0,0.5],[1,0.5]];portConstraint=eastwest;top=0;left=0;right=0;bottom=0;" parent="aegGA6woRjyQkEvJzV3C-7" vertex="1">
          <mxGeometry y="180" width="250" height="30" as="geometry" />
        </mxCell>
        <mxCell id="aegGA6woRjyQkEvJzV3C-21" style="shape=partialRectangle;overflow=hidden;connectable=0;fillColor=none;top=0;left=0;bottom=0;right=0;" parent="aegGA6woRjyQkEvJzV3C-20" vertex="1">
          <mxGeometry width="30" height="30" as="geometry">
            <mxRectangle width="30" height="30" as="alternateBounds" />
          </mxGeometry>
        </mxCell>
        <mxCell id="aegGA6woRjyQkEvJzV3C-22" value="accuracy Int NOT NULL" style="shape=partialRectangle;overflow=hidden;connectable=0;fillColor=none;top=0;left=0;bottom=0;right=0;align=left;spacingLeft=6;" parent="aegGA6woRjyQkEvJzV3C-20" vertex="1">
          <mxGeometry x="30" width="220" height="30" as="geometry">
            <mxRectangle width="220" height="30" as="alternateBounds" />
          </mxGeometry>
        </mxCell>
        <mxCell id="aegGA6woRjyQkEvJzV3C-23" style="shape=partialRectangle;collapsible=0;dropTarget=0;pointerEvents=0;fillColor=none;points=[[0,0.5],[1,0.5]];portConstraint=eastwest;top=0;left=0;right=0;bottom=0;" parent="aegGA6woRjyQkEvJzV3C-7" vertex="1">
          <mxGeometry y="210" width="250" height="30" as="geometry" />
        </mxCell>
        <mxCell id="aegGA6woRjyQkEvJzV3C-24" style="shape=partialRectangle;overflow=hidden;connectable=0;fillColor=none;top=0;left=0;bottom=0;right=0;" parent="aegGA6woRjyQkEvJzV3C-23" vertex="1">
          <mxGeometry width="30" height="30" as="geometry">
            <mxRectangle width="30" height="30" as="alternateBounds" />
          </mxGeometry>
        </mxCell>
        <mxCell id="aegGA6woRjyQkEvJzV3C-25" value="pp Int NOT NULL" style="shape=partialRectangle;overflow=hidden;connectable=0;fillColor=none;top=0;left=0;bottom=0;right=0;align=left;spacingLeft=6;" parent="aegGA6woRjyQkEvJzV3C-23" vertex="1">
          <mxGeometry x="30" width="220" height="30" as="geometry">
            <mxRectangle width="220" height="30" as="alternateBounds" />
          </mxGeometry>
        </mxCell>
        <mxCell id="aegGA6woRjyQkEvJzV3C-26" style="shape=partialRectangle;collapsible=0;dropTarget=0;pointerEvents=0;fillColor=none;points=[[0,0.5],[1,0.5]];portConstraint=eastwest;top=0;left=0;right=0;bottom=0;" parent="aegGA6woRjyQkEvJzV3C-7" vertex="1">
          <mxGeometry y="240" width="250" height="30" as="geometry" />
        </mxCell>
        <mxCell id="aegGA6woRjyQkEvJzV3C-27" style="shape=partialRectangle;overflow=hidden;connectable=0;fillColor=none;top=0;left=0;bottom=0;right=0;" parent="aegGA6woRjyQkEvJzV3C-26" vertex="1">
          <mxGeometry width="30" height="30" as="geometry">
            <mxRectangle width="30" height="30" as="alternateBounds" />
          </mxGeometry>
        </mxCell>
        <mxCell id="aegGA6woRjyQkEvJzV3C-28" value="status_effect Bool NOT NULL" style="shape=partialRectangle;overflow=hidden;connectable=0;fillColor=none;top=0;left=0;bottom=0;right=0;align=left;spacingLeft=6;" parent="aegGA6woRjyQkEvJzV3C-26" vertex="1">
          <mxGeometry x="30" width="220" height="30" as="geometry">
            <mxRectangle width="220" height="30" as="alternateBounds" />
          </mxGeometry>
        </mxCell>
        <mxCell id="aegGA6woRjyQkEvJzV3C-29" style="shape=partialRectangle;collapsible=0;dropTarget=0;pointerEvents=0;fillColor=none;points=[[0,0.5],[1,0.5]];portConstraint=eastwest;top=0;left=0;right=0;bottom=0;" parent="aegGA6woRjyQkEvJzV3C-7" vertex="1">
          <mxGeometry y="270" width="250" height="30" as="geometry" />
        </mxCell>
        <mxCell id="aegGA6woRjyQkEvJzV3C-30" style="shape=partialRectangle;overflow=hidden;connectable=0;fillColor=none;top=0;left=0;bottom=0;right=0;" parent="aegGA6woRjyQkEvJzV3C-29" vertex="1">
          <mxGeometry width="30" height="30" as="geometry">
            <mxRectangle width="30" height="30" as="alternateBounds" />
          </mxGeometry>
        </mxCell>
        <mxCell id="aegGA6woRjyQkEvJzV3C-31" value="status_name char(10) NOT NULL" style="shape=partialRectangle;overflow=hidden;connectable=0;fillColor=none;top=0;left=0;bottom=0;right=0;align=left;spacingLeft=6;" parent="aegGA6woRjyQkEvJzV3C-29" vertex="1">
          <mxGeometry x="30" width="220" height="30" as="geometry">
            <mxRectangle width="220" height="30" as="alternateBounds" />
          </mxGeometry>
        </mxCell>
        <mxCell id="aegGA6woRjyQkEvJzV3C-32" style="shape=partialRectangle;collapsible=0;dropTarget=0;pointerEvents=0;fillColor=none;points=[[0,0.5],[1,0.5]];portConstraint=eastwest;top=0;left=0;right=0;bottom=0;" parent="aegGA6woRjyQkEvJzV3C-7" vertex="1">
          <mxGeometry y="300" width="250" height="30" as="geometry" />
        </mxCell>
        <mxCell id="aegGA6woRjyQkEvJzV3C-33" style="shape=partialRectangle;overflow=hidden;connectable=0;fillColor=none;top=0;left=0;bottom=0;right=0;" parent="aegGA6woRjyQkEvJzV3C-32" vertex="1">
          <mxGeometry width="30" height="30" as="geometry">
            <mxRectangle width="30" height="30" as="alternateBounds" />
          </mxGeometry>
        </mxCell>
        <mxCell id="aegGA6woRjyQkEvJzV3C-34" value="status_rank Int NOT NULL" style="shape=partialRectangle;overflow=hidden;connectable=0;fillColor=none;top=0;left=0;bottom=0;right=0;align=left;spacingLeft=6;" parent="aegGA6woRjyQkEvJzV3C-32" vertex="1">
          <mxGeometry x="30" width="220" height="30" as="geometry">
            <mxRectangle width="220" height="30" as="alternateBounds" />
          </mxGeometry>
        </mxCell>
        <mxCell id="aegGA6woRjyQkEvJzV3C-35" style="shape=partialRectangle;collapsible=0;dropTarget=0;pointerEvents=0;fillColor=none;points=[[0,0.5],[1,0.5]];portConstraint=eastwest;top=0;left=0;right=0;bottom=0;" parent="aegGA6woRjyQkEvJzV3C-7" vertex="1">
          <mxGeometry y="330" width="250" height="30" as="geometry" />
        </mxCell>
        <mxCell id="aegGA6woRjyQkEvJzV3C-36" style="shape=partialRectangle;overflow=hidden;connectable=0;fillColor=none;top=0;left=0;bottom=0;right=0;" parent="aegGA6woRjyQkEvJzV3C-35" vertex="1">
          <mxGeometry width="30" height="30" as="geometry">
            <mxRectangle width="30" height="30" as="alternateBounds" />
          </mxGeometry>
        </mxCell>
        <mxCell id="aegGA6woRjyQkEvJzV3C-37" value="ailment_effect Bool NOT NULL" style="shape=partialRectangle;overflow=hidden;connectable=0;fillColor=none;top=0;left=0;bottom=0;right=0;align=left;spacingLeft=6;" parent="aegGA6woRjyQkEvJzV3C-35" vertex="1">
          <mxGeometry x="30" width="220" height="30" as="geometry">
            <mxRectangle width="220" height="30" as="alternateBounds" />
          </mxGeometry>
        </mxCell>
        <mxCell id="aegGA6woRjyQkEvJzV3C-38" style="shape=partialRectangle;collapsible=0;dropTarget=0;pointerEvents=0;fillColor=none;points=[[0,0.5],[1,0.5]];portConstraint=eastwest;top=0;left=0;right=0;bottom=0;" parent="aegGA6woRjyQkEvJzV3C-7" vertex="1">
          <mxGeometry y="360" width="250" height="30" as="geometry" />
        </mxCell>
        <mxCell id="aegGA6woRjyQkEvJzV3C-39" style="shape=partialRectangle;overflow=hidden;connectable=0;fillColor=none;top=0;left=0;bottom=0;right=0;" parent="aegGA6woRjyQkEvJzV3C-38" vertex="1">
          <mxGeometry width="30" height="30" as="geometry">
            <mxRectangle width="30" height="30" as="alternateBounds" />
          </mxGeometry>
        </mxCell>
        <mxCell id="aegGA6woRjyQkEvJzV3C-40" value="ailment_name Text NOT NULL" style="shape=partialRectangle;overflow=hidden;connectable=0;fillColor=none;top=0;left=0;bottom=0;right=0;align=left;spacingLeft=6;" parent="aegGA6woRjyQkEvJzV3C-38" vertex="1">
          <mxGeometry x="30" width="220" height="30" as="geometry">
            <mxRectangle width="220" height="30" as="alternateBounds" />
          </mxGeometry>
        </mxCell>
        <mxCell id="tAhZyIjGFaHLIBkUWRDt-10" style="shape=partialRectangle;collapsible=0;dropTarget=0;pointerEvents=0;fillColor=none;points=[[0,0.5],[1,0.5]];portConstraint=eastwest;top=0;left=0;right=0;bottom=0;" parent="aegGA6woRjyQkEvJzV3C-7" vertex="1">
          <mxGeometry y="390" width="250" height="30" as="geometry" />
        </mxCell>
        <mxCell id="tAhZyIjGFaHLIBkUWRDt-11" style="shape=partialRectangle;overflow=hidden;connectable=0;fillColor=none;top=0;left=0;bottom=0;right=0;" parent="tAhZyIjGFaHLIBkUWRDt-10" vertex="1">
          <mxGeometry width="30" height="30" as="geometry">
            <mxRectangle width="30" height="30" as="alternateBounds" />
          </mxGeometry>
        </mxCell>
        <mxCell id="tAhZyIjGFaHLIBkUWRDt-12" value="healing_effect Bool NOT NULL" style="shape=partialRectangle;overflow=hidden;connectable=0;fillColor=none;top=0;left=0;bottom=0;right=0;align=left;spacingLeft=6;" parent="tAhZyIjGFaHLIBkUWRDt-10" vertex="1">
          <mxGeometry x="30" width="220" height="30" as="geometry">
            <mxRectangle width="220" height="30" as="alternateBounds" />
          </mxGeometry>
        </mxCell>
        <mxCell id="tAhZyIjGFaHLIBkUWRDt-7" style="shape=partialRectangle;collapsible=0;dropTarget=0;pointerEvents=0;fillColor=none;points=[[0,0.5],[1,0.5]];portConstraint=eastwest;top=0;left=0;right=0;bottom=0;" parent="aegGA6woRjyQkEvJzV3C-7" vertex="1">
          <mxGeometry y="420" width="250" height="30" as="geometry" />
        </mxCell>
        <mxCell id="tAhZyIjGFaHLIBkUWRDt-8" style="shape=partialRectangle;overflow=hidden;connectable=0;fillColor=none;top=0;left=0;bottom=0;right=0;" parent="tAhZyIjGFaHLIBkUWRDt-7" vertex="1">
          <mxGeometry width="30" height="30" as="geometry">
            <mxRectangle width="30" height="30" as="alternateBounds" />
          </mxGeometry>
        </mxCell>
        <mxCell id="tAhZyIjGFaHLIBkUWRDt-9" value="healing_amont Int NOT NULL" style="shape=partialRectangle;overflow=hidden;connectable=0;fillColor=none;top=0;left=0;bottom=0;right=0;align=left;spacingLeft=6;" parent="tAhZyIjGFaHLIBkUWRDt-7" vertex="1">
          <mxGeometry x="30" width="220" height="30" as="geometry">
            <mxRectangle width="220" height="30" as="alternateBounds" />
          </mxGeometry>
        </mxCell>
        <mxCell id="ChUbVJP7CGtP9hk6e_pp-15" value="&lt;div&gt;ステータス変化:status&lt;/div&gt;状態異常:ailment&lt;div&gt;回復効果:healing&lt;/div&gt;&lt;div&gt;回復量:healing_amount&lt;/div&gt;" style="text;html=1;align=center;verticalAlign=middle;whiteSpace=wrap;rounded=0;" parent="2iEUzzYOUyshjoA6yyhH-1" vertex="1">
          <mxGeometry x="650" y="690" width="160" height="140" as="geometry" />
        </mxCell>
        <mxCell id="tAhZyIjGFaHLIBkUWRDt-20" value="Client side" style="swimlane;whiteSpace=wrap;html=1;" parent="1" vertex="1">
          <mxGeometry x="1160" y="80" width="920" height="1060" as="geometry" />
        </mxCell>
        <mxCell id="tAhZyIjGFaHLIBkUWRDt-21" value="teamContext" style="swimlane;whiteSpace=wrap;html=1;" parent="tAhZyIjGFaHLIBkUWRDt-20" vertex="1">
          <mxGeometry x="40" y="50" width="560" height="640" as="geometry" />
        </mxCell>
        <mxCell id="2iEUzzYOUyshjoA6yyhH-51" value="pokemon" style="swimlane;fontStyle=0;childLayout=stackLayout;horizontal=1;startSize=30;horizontalStack=0;resizeParent=1;resizeParentMax=0;resizeLast=0;collapsible=1;marginBottom=0;whiteSpace=wrap;html=1;" parent="tAhZyIjGFaHLIBkUWRDt-21" vertex="1">
          <mxGeometry x="50" y="40" width="140" height="510" as="geometry" />
        </mxCell>
        <mxCell id="2iEUzzYOUyshjoA6yyhH-52" value="pokemon_id" style="text;strokeColor=none;fillColor=none;align=left;verticalAlign=middle;spacingLeft=4;spacingRight=4;overflow=hidden;points=[[0,0.5],[1,0.5]];portConstraint=eastwest;rotatable=0;whiteSpace=wrap;html=1;" parent="2iEUzzYOUyshjoA6yyhH-51" vertex="1">
          <mxGeometry y="30" width="140" height="30" as="geometry" />
        </mxCell>
        <mxCell id="ChUbVJP7CGtP9hk6e_pp-11" value="index" style="text;strokeColor=none;fillColor=none;align=left;verticalAlign=middle;spacingLeft=4;spacingRight=4;overflow=hidden;points=[[0,0.5],[1,0.5]];portConstraint=eastwest;rotatable=0;whiteSpace=wrap;html=1;" parent="2iEUzzYOUyshjoA6yyhH-51" vertex="1">
          <mxGeometry y="60" width="140" height="30" as="geometry" />
        </mxCell>
        <mxCell id="2iEUzzYOUyshjoA6yyhH-66" value="name" style="text;strokeColor=none;fillColor=none;align=left;verticalAlign=middle;spacingLeft=4;spacingRight=4;overflow=hidden;points=[[0,0.5],[1,0.5]];portConstraint=eastwest;rotatable=0;whiteSpace=wrap;html=1;" parent="2iEUzzYOUyshjoA6yyhH-51" vertex="1">
          <mxGeometry y="90" width="140" height="30" as="geometry" />
        </mxCell>
        <mxCell id="ChUbVJP7CGtP9hk6e_pp-10" value="type" style="text;strokeColor=none;fillColor=none;align=left;verticalAlign=middle;spacingLeft=4;spacingRight=4;overflow=hidden;points=[[0,0.5],[1,0.5]];portConstraint=eastwest;rotatable=0;whiteSpace=wrap;html=1;" parent="2iEUzzYOUyshjoA6yyhH-51" vertex="1">
          <mxGeometry y="120" width="140" height="30" as="geometry" />
        </mxCell>
        <mxCell id="2iEUzzYOUyshjoA6yyhH-53" value="level" style="text;strokeColor=none;fillColor=none;align=left;verticalAlign=middle;spacingLeft=4;spacingRight=4;overflow=hidden;points=[[0,0.5],[1,0.5]];portConstraint=eastwest;rotatable=0;whiteSpace=wrap;html=1;" parent="2iEUzzYOUyshjoA6yyhH-51" vertex="1">
          <mxGeometry y="150" width="140" height="30" as="geometry" />
        </mxCell>
        <mxCell id="0lCCp1aEb1nz4CffidwJ-1" value="exp" style="text;strokeColor=none;fillColor=none;align=left;verticalAlign=middle;spacingLeft=4;spacingRight=4;overflow=hidden;points=[[0,0.5],[1,0.5]];portConstraint=eastwest;rotatable=0;whiteSpace=wrap;html=1;" parent="2iEUzzYOUyshjoA6yyhH-51" vertex="1">
          <mxGeometry y="180" width="140" height="30" as="geometry" />
        </mxCell>
        <mxCell id="2iEUzzYOUyshjoA6yyhH-54" value="front_image" style="text;strokeColor=none;fillColor=none;align=left;verticalAlign=middle;spacingLeft=4;spacingRight=4;overflow=hidden;points=[[0,0.5],[1,0.5]];portConstraint=eastwest;rotatable=0;whiteSpace=wrap;html=1;" parent="2iEUzzYOUyshjoA6yyhH-51" vertex="1">
          <mxGeometry y="210" width="140" height="30" as="geometry" />
        </mxCell>
        <mxCell id="0lCCp1aEb1nz4CffidwJ-2" value="back_image" style="text;strokeColor=none;fillColor=none;align=left;verticalAlign=middle;spacingLeft=4;spacingRight=4;overflow=hidden;points=[[0,0.5],[1,0.5]];portConstraint=eastwest;rotatable=0;whiteSpace=wrap;html=1;" parent="2iEUzzYOUyshjoA6yyhH-51" vertex="1">
          <mxGeometry y="240" width="140" height="30" as="geometry" />
        </mxCell>
        <mxCell id="2iEUzzYOUyshjoA6yyhH-65" value="hp" style="text;strokeColor=none;fillColor=none;align=left;verticalAlign=middle;spacingLeft=4;spacingRight=4;overflow=hidden;points=[[0,0.5],[1,0.5]];portConstraint=eastwest;rotatable=0;whiteSpace=wrap;html=1;" parent="2iEUzzYOUyshjoA6yyhH-51" vertex="1">
          <mxGeometry y="270" width="140" height="30" as="geometry" />
        </mxCell>
        <mxCell id="2iEUzzYOUyshjoA6yyhH-64" value="attack" style="text;strokeColor=none;fillColor=none;align=left;verticalAlign=middle;spacingLeft=4;spacingRight=4;overflow=hidden;points=[[0,0.5],[1,0.5]];portConstraint=eastwest;rotatable=0;whiteSpace=wrap;html=1;" parent="2iEUzzYOUyshjoA6yyhH-51" vertex="1">
          <mxGeometry y="300" width="140" height="30" as="geometry" />
        </mxCell>
        <mxCell id="2iEUzzYOUyshjoA6yyhH-63" value="defence" style="text;strokeColor=none;fillColor=none;align=left;verticalAlign=middle;spacingLeft=4;spacingRight=4;overflow=hidden;points=[[0,0.5],[1,0.5]];portConstraint=eastwest;rotatable=0;whiteSpace=wrap;html=1;" parent="2iEUzzYOUyshjoA6yyhH-51" vertex="1">
          <mxGeometry y="330" width="140" height="30" as="geometry" />
        </mxCell>
        <mxCell id="2iEUzzYOUyshjoA6yyhH-62" value="special_attack" style="text;strokeColor=none;fillColor=none;align=left;verticalAlign=middle;spacingLeft=4;spacingRight=4;overflow=hidden;points=[[0,0.5],[1,0.5]];portConstraint=eastwest;rotatable=0;whiteSpace=wrap;html=1;" parent="2iEUzzYOUyshjoA6yyhH-51" vertex="1">
          <mxGeometry y="360" width="140" height="30" as="geometry" />
        </mxCell>
        <mxCell id="2iEUzzYOUyshjoA6yyhH-61" value="special_defence" style="text;strokeColor=none;fillColor=none;align=left;verticalAlign=middle;spacingLeft=4;spacingRight=4;overflow=hidden;points=[[0,0.5],[1,0.5]];portConstraint=eastwest;rotatable=0;whiteSpace=wrap;html=1;" parent="2iEUzzYOUyshjoA6yyhH-51" vertex="1">
          <mxGeometry y="390" width="140" height="30" as="geometry" />
        </mxCell>
        <mxCell id="2iEUzzYOUyshjoA6yyhH-60" value="speed" style="text;strokeColor=none;fillColor=none;align=left;verticalAlign=middle;spacingLeft=4;spacingRight=4;overflow=hidden;points=[[0,0.5],[1,0.5]];portConstraint=eastwest;rotatable=0;whiteSpace=wrap;html=1;" parent="2iEUzzYOUyshjoA6yyhH-51" vertex="1">
          <mxGeometry y="420" width="140" height="30" as="geometry" />
        </mxCell>
        <mxCell id="2iEUzzYOUyshjoA6yyhH-59" value="move1_id" style="text;strokeColor=none;fillColor=none;align=left;verticalAlign=middle;spacingLeft=4;spacingRight=4;overflow=hidden;points=[[0,0.5],[1,0.5]];portConstraint=eastwest;rotatable=0;whiteSpace=wrap;html=1;" parent="2iEUzzYOUyshjoA6yyhH-51" vertex="1">
          <mxGeometry y="450" width="140" height="30" as="geometry" />
        </mxCell>
        <mxCell id="2iEUzzYOUyshjoA6yyhH-58" value="move2_id" style="text;strokeColor=none;fillColor=none;align=left;verticalAlign=middle;spacingLeft=4;spacingRight=4;overflow=hidden;points=[[0,0.5],[1,0.5]];portConstraint=eastwest;rotatable=0;whiteSpace=wrap;html=1;" parent="2iEUzzYOUyshjoA6yyhH-51" vertex="1">
          <mxGeometry y="480" width="140" height="30" as="geometry" />
        </mxCell>
        <mxCell id="tAhZyIjGFaHLIBkUWRDt-16" value="team_pokemon_move" style="swimlane;fontStyle=0;childLayout=stackLayout;horizontal=1;startSize=30;horizontalStack=0;resizeParent=1;resizeParentMax=0;resizeLast=0;collapsible=1;marginBottom=0;whiteSpace=wrap;html=1;" parent="tAhZyIjGFaHLIBkUWRDt-21" vertex="1">
          <mxGeometry x="330" y="40" width="140" height="120" as="geometry" />
        </mxCell>
        <mxCell id="tAhZyIjGFaHLIBkUWRDt-17" value="move_id" style="text;strokeColor=none;fillColor=none;align=left;verticalAlign=middle;spacingLeft=4;spacingRight=4;overflow=hidden;points=[[0,0.5],[1,0.5]];portConstraint=eastwest;rotatable=0;whiteSpace=wrap;html=1;" parent="tAhZyIjGFaHLIBkUWRDt-16" vertex="1">
          <mxGeometry y="30" width="140" height="30" as="geometry" />
        </mxCell>
        <mxCell id="tAhZyIjGFaHLIBkUWRDt-18" value="name" style="text;strokeColor=none;fillColor=none;align=left;verticalAlign=middle;spacingLeft=4;spacingRight=4;overflow=hidden;points=[[0,0.5],[1,0.5]];portConstraint=eastwest;rotatable=0;whiteSpace=wrap;html=1;" parent="tAhZyIjGFaHLIBkUWRDt-16" vertex="1">
          <mxGeometry y="60" width="140" height="30" as="geometry" />
        </mxCell>
        <mxCell id="tAhZyIjGFaHLIBkUWRDt-19" value="description" style="text;strokeColor=none;fillColor=none;align=left;verticalAlign=middle;spacingLeft=4;spacingRight=4;overflow=hidden;points=[[0,0.5],[1,0.5]];portConstraint=eastwest;rotatable=0;whiteSpace=wrap;html=1;" parent="tAhZyIjGFaHLIBkUWRDt-16" vertex="1">
          <mxGeometry y="90" width="140" height="30" as="geometry" />
        </mxCell>
        <mxCell id="tAhZyIjGFaHLIBkUWRDt-22" value="ホーム・編成で&lt;div&gt;参照するデータ&lt;/div&gt;" style="text;html=1;align=center;verticalAlign=middle;whiteSpace=wrap;rounded=0;" parent="tAhZyIjGFaHLIBkUWRDt-21" vertex="1">
          <mxGeometry x="325" y="280" width="150" height="80" as="geometry" />
        </mxCell>
        <mxCell id="_KQb2Mtf_g5tQqvPD8Vs-19" value="" style="edgeStyle=entityRelationEdgeStyle;fontSize=12;html=1;endArrow=ERoneToMany;rounded=0;entryX=1;entryY=0.5;entryDx=0;entryDy=0;exitX=0;exitY=0.5;exitDx=0;exitDy=0;" parent="1" source="PMordIFP9YFSgUBU5cF2-35" target="PMordIFP9YFSgUBU5cF2-7" edge="1">
          <mxGeometry width="100" height="100" relative="1" as="geometry">
            <mxPoint x="480" y="500" as="sourcePoint" />
            <mxPoint x="580" y="400" as="targetPoint" />
          </mxGeometry>
        </mxCell>
        <mxCell id="_KQb2Mtf_g5tQqvPD8Vs-28" value="" style="edgeStyle=entityRelationEdgeStyle;fontSize=12;html=1;endArrow=ERoneToMany;rounded=0;exitX=1;exitY=0.5;exitDx=0;exitDy=0;entryX=0;entryY=0.5;entryDx=0;entryDy=0;" parent="1" source="aegGA6woRjyQkEvJzV3C-8" target="_KQb2Mtf_g5tQqvPD8Vs-16" edge="1">
          <mxGeometry width="100" height="100" relative="1" as="geometry">
            <mxPoint x="200" y="450" as="sourcePoint" />
            <mxPoint x="300" y="350" as="targetPoint" />
          </mxGeometry>
        </mxCell>
        <mxCell id="_KQb2Mtf_g5tQqvPD8Vs-31" value="" style="edgeStyle=entityRelationEdgeStyle;fontSize=12;html=1;endArrow=ERoneToMany;rounded=0;exitX=1;exitY=0.5;exitDx=0;exitDy=0;entryX=0;entryY=0.5;entryDx=0;entryDy=0;" parent="1" source="aegGA6woRjyQkEvJzV3C-8" target="_KQb2Mtf_g5tQqvPD8Vs-13" edge="1">
          <mxGeometry width="100" height="100" relative="1" as="geometry">
            <mxPoint x="200" y="450" as="sourcePoint" />
            <mxPoint x="300" y="350" as="targetPoint" />
          </mxGeometry>
        </mxCell>
        <mxCell id="ChUbVJP7CGtP9hk6e_pp-2" value="" style="endArrow=classic;html=1;rounded=0;exitX=1;exitY=0.25;exitDx=0;exitDy=0;" parent="1" source="2iEUzzYOUyshjoA6yyhH-1" edge="1">
          <mxGeometry width="50" height="50" relative="1" as="geometry">
            <mxPoint x="1130" y="410" as="sourcePoint" />
            <mxPoint x="1160" y="375" as="targetPoint" />
          </mxGeometry>
        </mxCell>
        <mxCell id="ChUbVJP7CGtP9hk6e_pp-3" value="&lt;span style=&quot;font-size: 20px;&quot;&gt;via server&lt;/span&gt;" style="text;html=1;align=center;verticalAlign=middle;whiteSpace=wrap;rounded=0;fontStyle=1" parent="1" vertex="1">
          <mxGeometry x="910" y="315" width="110" height="40" as="geometry" />
        </mxCell>
      </root>
    </mxGraphModel>
  </diagram>
  <diagram id="A448tsike1UsHoGQb_Kz" name="アクティビティ図_ログイン">
    <mxGraphModel dx="1060" dy="797" grid="1" gridSize="10" guides="1" tooltips="1" connect="1" arrows="1" fold="1" page="1" pageScale="1" pageWidth="827" pageHeight="1169" math="0" shadow="0">
      <root>
        <mxCell id="0" />
        <mxCell id="1" parent="0" />
        <mxCell id="_QOsSM0KpeNfqXbcDRa7-4" style="edgeStyle=orthogonalEdgeStyle;rounded=0;orthogonalLoop=1;jettySize=auto;html=1;entryX=0.5;entryY=0;entryDx=0;entryDy=0;fontStyle=1;strokeColor=#CC6600;fontColor=#009900;" parent="1" source="_QOsSM0KpeNfqXbcDRa7-2" target="_QOsSM0KpeNfqXbcDRa7-3" edge="1">
          <mxGeometry relative="1" as="geometry" />
        </mxCell>
        <mxCell id="_QOsSM0KpeNfqXbcDRa7-2" value="" style="ellipse;fillColor=strokeColor;html=1;fontStyle=1;strokeColor=#CC6600;fontColor=#009900;" parent="1" vertex="1">
          <mxGeometry x="250" y="90" width="30" height="30" as="geometry" />
        </mxCell>
        <mxCell id="_QOsSM0KpeNfqXbcDRa7-3" value="&lt;span&gt;Google認証&lt;/span&gt;" style="rounded=0;whiteSpace=wrap;html=1;fontStyle=1;strokeColor=#CC6600;fontColor=#009900;" parent="1" vertex="1">
          <mxGeometry x="205" y="160" width="120" height="40" as="geometry" />
        </mxCell>
        <mxCell id="FqPPIAnQAcATbRL6z3Gs-5" style="edgeStyle=orthogonalEdgeStyle;rounded=0;orthogonalLoop=1;jettySize=auto;html=1;entryX=0.5;entryY=0;entryDx=0;entryDy=0;fontStyle=1;strokeColor=#CC6600;fontColor=#009900;" parent="1" source="FqPPIAnQAcATbRL6z3Gs-1" target="FqPPIAnQAcATbRL6z3Gs-2" edge="1">
          <mxGeometry relative="1" as="geometry" />
        </mxCell>
        <mxCell id="FqPPIAnQAcATbRL6z3Gs-1" value="プレイヤーデータ&lt;div&gt;問い合わせ&lt;/div&gt;" style="html=1;whiteSpace=wrap;aspect=fixed;shape=isoRectangle;fontStyle=1;strokeColor=#CC6600;fontColor=#009900;" parent="1" vertex="1">
          <mxGeometry x="190" y="240" width="150" height="90" as="geometry" />
        </mxCell>
        <mxCell id="FqPPIAnQAcATbRL6z3Gs-21" style="edgeStyle=orthogonalEdgeStyle;rounded=0;orthogonalLoop=1;jettySize=auto;html=1;strokeColor=#CC6600;fontColor=#009900;" parent="1" source="FqPPIAnQAcATbRL6z3Gs-2" target="FqPPIAnQAcATbRL6z3Gs-10" edge="1">
          <mxGeometry relative="1" as="geometry" />
        </mxCell>
        <mxCell id="FqPPIAnQAcATbRL6z3Gs-2" value="&lt;span&gt;プレイヤー登録(自動)&lt;/span&gt;" style="rounded=0;whiteSpace=wrap;html=1;fontStyle=1;strokeColor=#CC6600;fontColor=#009900;" parent="1" vertex="1">
          <mxGeometry x="414" y="415" width="120" height="40" as="geometry" />
        </mxCell>
        <mxCell id="FqPPIAnQAcATbRL6z3Gs-3" style="edgeStyle=orthogonalEdgeStyle;rounded=0;orthogonalLoop=1;jettySize=auto;html=1;entryX=0.502;entryY=-0.015;entryDx=0;entryDy=0;entryPerimeter=0;fontStyle=1;strokeColor=#CC6600;fontColor=#009900;" parent="1" source="_QOsSM0KpeNfqXbcDRa7-3" target="FqPPIAnQAcATbRL6z3Gs-1" edge="1">
          <mxGeometry relative="1" as="geometry" />
        </mxCell>
        <mxCell id="FqPPIAnQAcATbRL6z3Gs-7" value="No" style="text;html=1;align=center;verticalAlign=middle;whiteSpace=wrap;rounded=0;fontStyle=1;strokeColor=#CC6600;fontColor=#009900;" parent="1" vertex="1">
          <mxGeometry x="390" y="300" width="60" height="30" as="geometry" />
        </mxCell>
        <mxCell id="FqPPIAnQAcATbRL6z3Gs-8" value="Yes" style="text;html=1;align=center;verticalAlign=middle;whiteSpace=wrap;rounded=0;fontStyle=1;strokeColor=#CC6600;fontColor=#009900;" parent="1" vertex="1">
          <mxGeometry x="280" y="350" width="60" height="30" as="geometry" />
        </mxCell>
        <mxCell id="FqPPIAnQAcATbRL6z3Gs-22" style="edgeStyle=orthogonalEdgeStyle;rounded=0;orthogonalLoop=1;jettySize=auto;html=1;entryX=0.5;entryY=0;entryDx=0;entryDy=0;strokeColor=#CC6600;fontColor=#009900;" parent="1" source="FqPPIAnQAcATbRL6z3Gs-10" target="Q52_18Nhoy3oIg48dzd6-2" edge="1">
          <mxGeometry relative="1" as="geometry">
            <mxPoint x="265" y="545" as="targetPoint" />
          </mxGeometry>
        </mxCell>
        <mxCell id="FqPPIAnQAcATbRL6z3Gs-24" style="edgeStyle=orthogonalEdgeStyle;rounded=0;orthogonalLoop=1;jettySize=auto;html=1;entryX=0.5;entryY=0;entryDx=0;entryDy=0;strokeColor=#CC6600;fontColor=#009900;" parent="1" source="FqPPIAnQAcATbRL6z3Gs-10" target="FqPPIAnQAcATbRL6z3Gs-14" edge="1">
          <mxGeometry relative="1" as="geometry" />
        </mxCell>
        <mxCell id="FqPPIAnQAcATbRL6z3Gs-10" value="ポケモンを所持&lt;div&gt;しているか&lt;/div&gt;" style="html=1;whiteSpace=wrap;aspect=fixed;shape=isoRectangle;fontStyle=1;strokeColor=#CC6600;fontColor=#009900;" parent="1" vertex="1">
          <mxGeometry x="190" y="390" width="150" height="90" as="geometry" />
        </mxCell>
        <mxCell id="FqPPIAnQAcATbRL6z3Gs-27" style="edgeStyle=orthogonalEdgeStyle;rounded=0;orthogonalLoop=1;jettySize=auto;html=1;strokeColor=#CC6600;fontColor=#009900;" parent="1" source="FqPPIAnQAcATbRL6z3Gs-14" edge="1">
          <mxGeometry relative="1" as="geometry">
            <mxPoint x="210" y="565" as="targetPoint" />
          </mxGeometry>
        </mxCell>
        <mxCell id="FqPPIAnQAcATbRL6z3Gs-14" value="初期ポケモン&lt;div&gt;選択画面&lt;/div&gt;" style="rounded=0;whiteSpace=wrap;html=1;fontStyle=1;strokeColor=#CC6600;fontColor=#009900;" parent="1" vertex="1">
          <mxGeometry x="10" y="545" width="120" height="40" as="geometry" />
        </mxCell>
        <mxCell id="lw2NsvzWGjhvQMSlkRsB-2" style="edgeStyle=orthogonalEdgeStyle;rounded=0;orthogonalLoop=1;jettySize=auto;html=1;strokeColor=#CC6600;exitX=0.5;exitY=1;exitDx=0;exitDy=0;fontColor=#009900;" parent="1" source="Q52_18Nhoy3oIg48dzd6-3" target="lw2NsvzWGjhvQMSlkRsB-1" edge="1">
          <mxGeometry relative="1" as="geometry">
            <mxPoint x="265" y="690" as="sourcePoint" />
          </mxGeometry>
        </mxCell>
        <mxCell id="FqPPIAnQAcATbRL6z3Gs-18" style="edgeStyle=orthogonalEdgeStyle;rounded=0;orthogonalLoop=1;jettySize=auto;html=1;entryX=0.5;entryY=0.06;entryDx=0;entryDy=0;entryPerimeter=0;strokeColor=#CC6600;fontColor=#009900;" parent="1" source="FqPPIAnQAcATbRL6z3Gs-1" target="FqPPIAnQAcATbRL6z3Gs-10" edge="1">
          <mxGeometry relative="1" as="geometry" />
        </mxCell>
        <mxCell id="FqPPIAnQAcATbRL6z3Gs-23" value="Yes" style="text;html=1;align=center;verticalAlign=middle;whiteSpace=wrap;rounded=0;fontStyle=1;strokeColor=#CC6600;fontColor=#009900;" parent="1" vertex="1">
          <mxGeometry x="280" y="500" width="60" height="30" as="geometry" />
        </mxCell>
        <mxCell id="FqPPIAnQAcATbRL6z3Gs-25" value="No" style="text;html=1;align=center;verticalAlign=middle;whiteSpace=wrap;rounded=0;fontStyle=1;strokeColor=#CC6600;fontColor=#009900;" parent="1" vertex="1">
          <mxGeometry x="90" y="450" width="60" height="30" as="geometry" />
        </mxCell>
        <mxCell id="lw2NsvzWGjhvQMSlkRsB-1" value="" style="ellipse;html=1;shape=endState;fillColor=strokeColor;strokeColor=#CC6600;fontColor=#009900;" parent="1" vertex="1">
          <mxGeometry x="250" y="830" width="30" height="30" as="geometry" />
        </mxCell>
        <mxCell id="sMPrbPtSbJhsjOVP34eV-2" style="edgeStyle=orthogonalEdgeStyle;rounded=0;orthogonalLoop=1;jettySize=auto;html=1;exitX=0.5;exitY=1;exitDx=0;exitDy=0;entryX=0.5;entryY=0;entryDx=0;entryDy=0;strokeColor=#CC6600;" edge="1" parent="1" source="Q52_18Nhoy3oIg48dzd6-2" target="sMPrbPtSbJhsjOVP34eV-1">
          <mxGeometry relative="1" as="geometry" />
        </mxCell>
        <mxCell id="Q52_18Nhoy3oIg48dzd6-2" value="手持ちデータ取得" style="rounded=0;whiteSpace=wrap;html=1;fontStyle=1;strokeColor=#CC6600;fontColor=#009900;" parent="1" vertex="1">
          <mxGeometry x="205" y="545" width="120" height="40" as="geometry" />
        </mxCell>
        <mxCell id="Q52_18Nhoy3oIg48dzd6-3" value="&lt;span&gt;ホーム画面へ&lt;/span&gt;" style="rounded=0;whiteSpace=wrap;html=1;fontStyle=1;strokeColor=#CC6600;fontColor=#009900;" parent="1" vertex="1">
          <mxGeometry x="205" y="750" width="120" height="40" as="geometry" />
        </mxCell>
        <mxCell id="sMPrbPtSbJhsjOVP34eV-3" style="edgeStyle=orthogonalEdgeStyle;rounded=0;orthogonalLoop=1;jettySize=auto;html=1;exitX=0.5;exitY=1;exitDx=0;exitDy=0;entryX=0.5;entryY=0;entryDx=0;entryDy=0;strokeColor=#CC6600;" edge="1" parent="1" source="sMPrbPtSbJhsjOVP34eV-1" target="Q52_18Nhoy3oIg48dzd6-3">
          <mxGeometry relative="1" as="geometry" />
        </mxCell>
        <mxCell id="sMPrbPtSbJhsjOVP34eV-1" value="技データ取得" style="rounded=0;whiteSpace=wrap;html=1;fontStyle=1;strokeColor=#CC6600;fontColor=#009900;" vertex="1" parent="1">
          <mxGeometry x="205" y="640" width="120" height="40" as="geometry" />
        </mxCell>
      </root>
    </mxGraphModel>
  </diagram>
  <diagram id="UJf_wAW4kHJVZZJwjVoV" name="アクティビティ図_ポケモンバトル">
    <mxGraphModel dx="1590" dy="2364" grid="1" gridSize="10" guides="1" tooltips="1" connect="1" arrows="1" fold="1" page="1" pageScale="1" pageWidth="827" pageHeight="1169" math="0" shadow="0">
      <root>
        <mxCell id="0" />
        <mxCell id="1" parent="0" />
        <mxCell id="3sC-6djldNPY9OcpTuFr-6" style="edgeStyle=orthogonalEdgeStyle;rounded=0;orthogonalLoop=1;jettySize=auto;html=1;entryX=0.5;entryY=0;entryDx=0;entryDy=0;strokeColor=#663300;" parent="1" source="DxVS8gKgyxI_-FiZyYMo-2" target="3sC-6djldNPY9OcpTuFr-3" edge="1">
          <mxGeometry relative="1" as="geometry" />
        </mxCell>
        <mxCell id="DxVS8gKgyxI_-FiZyYMo-2" value="" style="ellipse;fillColor=strokeColor;html=1;fontStyle=1;strokeColor=#663300;fontColor=#009900;" parent="1" vertex="1">
          <mxGeometry x="250" y="-170" width="30" height="30" as="geometry" />
        </mxCell>
        <mxCell id="DxVS8gKgyxI_-FiZyYMo-3" value="&lt;span&gt;コマンド「たたかう」・「にげる」&lt;/span&gt;" style="rounded=0;whiteSpace=wrap;html=1;fontStyle=1;strokeColor=#663300;fontColor=#009900;" parent="1" vertex="1">
          <mxGeometry x="137" y="20" width="255" height="40" as="geometry" />
        </mxCell>
        <mxCell id="DxVS8gKgyxI_-FiZyYMo-4" style="edgeStyle=orthogonalEdgeStyle;rounded=0;orthogonalLoop=1;jettySize=auto;html=1;fontStyle=1;strokeColor=#663300;fontColor=#009900;entryX=0.52;entryY=0;entryDx=0;entryDy=0;entryPerimeter=0;exitX=1;exitY=0.5;exitDx=0;exitDy=0;exitPerimeter=0;" parent="1" source="3sC-6djldNPY9OcpTuFr-8" edge="1">
          <mxGeometry relative="1" as="geometry">
            <mxPoint x="260" y="181.5" as="sourcePoint" />
            <mxPoint x="470" y="390" as="targetPoint" />
          </mxGeometry>
        </mxCell>
        <mxCell id="DxVS8gKgyxI_-FiZyYMo-6" style="edgeStyle=orthogonalEdgeStyle;rounded=0;orthogonalLoop=1;jettySize=auto;html=1;strokeColor=#663300;fontColor=#009900;" parent="1" target="DxVS8gKgyxI_-FiZyYMo-13" edge="1">
          <mxGeometry relative="1" as="geometry">
            <mxPoint x="390" y="435" as="sourcePoint" />
          </mxGeometry>
        </mxCell>
        <mxCell id="DxVS8gKgyxI_-FiZyYMo-8" style="edgeStyle=orthogonalEdgeStyle;rounded=0;orthogonalLoop=1;jettySize=auto;html=1;entryX=0.498;entryY=0.011;entryDx=0;entryDy=0;entryPerimeter=0;fontStyle=1;strokeColor=#663300;fontColor=#009900;" parent="1" target="3sC-6djldNPY9OcpTuFr-8" edge="1">
          <mxGeometry relative="1" as="geometry">
            <mxPoint x="264.5" y="59" as="sourcePoint" />
            <mxPoint x="264.54999999999995" y="128.98000000000002" as="targetPoint" />
          </mxGeometry>
        </mxCell>
        <mxCell id="DxVS8gKgyxI_-FiZyYMo-9" value="にげる" style="text;html=1;align=center;verticalAlign=middle;whiteSpace=wrap;rounded=0;fontStyle=1;strokeColor=#663300;fontColor=#009900;" parent="1" vertex="1">
          <mxGeometry x="400" y="170" width="60" height="30" as="geometry" />
        </mxCell>
        <mxCell id="DxVS8gKgyxI_-FiZyYMo-10" value="たたかう" style="text;html=1;align=center;verticalAlign=middle;whiteSpace=wrap;rounded=0;fontStyle=1;strokeColor=#663300;fontColor=#009900;" parent="1" vertex="1">
          <mxGeometry x="300" y="190" width="60" height="30" as="geometry" />
        </mxCell>
        <mxCell id="DxVS8gKgyxI_-FiZyYMo-11" style="edgeStyle=orthogonalEdgeStyle;rounded=0;orthogonalLoop=1;jettySize=auto;html=1;entryX=0.502;entryY=0.022;entryDx=0;entryDy=0;strokeColor=#663300;fontColor=#009900;entryPerimeter=0;" parent="1" source="DxVS8gKgyxI_-FiZyYMo-13" target="DxVS8gKgyxI_-FiZyYMo-40" edge="1">
          <mxGeometry relative="1" as="geometry">
            <mxPoint x="265" y="545" as="targetPoint" />
          </mxGeometry>
        </mxCell>
        <mxCell id="DxVS8gKgyxI_-FiZyYMo-13" value="ねむり判定" style="html=1;whiteSpace=wrap;aspect=fixed;shape=isoRectangle;fontStyle=1;strokeColor=#663300;fontColor=#009900;" parent="1" vertex="1">
          <mxGeometry x="190" y="390" width="150" height="90" as="geometry" />
        </mxCell>
        <mxCell id="DxVS8gKgyxI_-FiZyYMo-15" style="edgeStyle=orthogonalEdgeStyle;rounded=0;orthogonalLoop=1;jettySize=auto;html=1;strokeColor=#663300;fontColor=#009900;" parent="1" source="DxVS8gKgyxI_-FiZyYMo-43" target="DxVS8gKgyxI_-FiZyYMo-19" edge="1">
          <mxGeometry relative="1" as="geometry">
            <mxPoint x="264.5" y="860" as="sourcePoint" />
          </mxGeometry>
        </mxCell>
        <mxCell id="DxVS8gKgyxI_-FiZyYMo-19" value="" style="ellipse;html=1;shape=endState;fillColor=strokeColor;strokeColor=#663300;fontColor=#009900;" parent="1" vertex="1">
          <mxGeometry x="249.5" y="1010" width="30" height="30" as="geometry" />
        </mxCell>
        <mxCell id="DxVS8gKgyxI_-FiZyYMo-37" style="edgeStyle=orthogonalEdgeStyle;rounded=0;orthogonalLoop=1;jettySize=auto;html=1;entryX=0;entryY=0.5;entryDx=0;entryDy=0;strokeColor=#663300;" parent="1" source="DxVS8gKgyxI_-FiZyYMo-33" target="DxVS8gKgyxI_-FiZyYMo-36" edge="1">
          <mxGeometry relative="1" as="geometry" />
        </mxCell>
        <mxCell id="DxVS8gKgyxI_-FiZyYMo-33" value="「にげる」判定" style="html=1;whiteSpace=wrap;aspect=fixed;shape=isoRectangle;fontStyle=1;strokeColor=#663300;fontColor=#009900;" parent="1" vertex="1">
          <mxGeometry x="392" y="390" width="150" height="90" as="geometry" />
        </mxCell>
        <mxCell id="DxVS8gKgyxI_-FiZyYMo-34" value="失敗" style="text;html=1;align=center;verticalAlign=middle;whiteSpace=wrap;rounded=0;fontStyle=1;strokeColor=#663300;fontColor=#009900;" parent="1" vertex="1">
          <mxGeometry x="340" y="390" width="60" height="30" as="geometry" />
        </mxCell>
        <mxCell id="DxVS8gKgyxI_-FiZyYMo-36" value="" style="ellipse;html=1;shape=endState;fillColor=strokeColor;strokeColor=#663300;fontColor=#009900;" parent="1" vertex="1">
          <mxGeometry x="600" y="420" width="30" height="30" as="geometry" />
        </mxCell>
        <mxCell id="DxVS8gKgyxI_-FiZyYMo-38" value="成功" style="text;html=1;align=center;verticalAlign=middle;whiteSpace=wrap;rounded=0;fontStyle=1;strokeColor=#663300;fontColor=#009900;" parent="1" vertex="1">
          <mxGeometry x="540" y="390" width="60" height="30" as="geometry" />
        </mxCell>
        <mxCell id="DxVS8gKgyxI_-FiZyYMo-44" style="edgeStyle=orthogonalEdgeStyle;rounded=0;orthogonalLoop=1;jettySize=auto;html=1;strokeColor=#663300;" parent="1" source="DxVS8gKgyxI_-FiZyYMo-40" target="DxVS8gKgyxI_-FiZyYMo-42" edge="1">
          <mxGeometry relative="1" as="geometry" />
        </mxCell>
        <mxCell id="DxVS8gKgyxI_-FiZyYMo-40" value="すばやさ判定" style="html=1;whiteSpace=wrap;aspect=fixed;shape=isoRectangle;fontStyle=1;strokeColor=#663300;fontColor=#009900;" parent="1" vertex="1">
          <mxGeometry x="190" y="550" width="150" height="90" as="geometry" />
        </mxCell>
        <mxCell id="DxVS8gKgyxI_-FiZyYMo-45" style="edgeStyle=orthogonalEdgeStyle;rounded=0;orthogonalLoop=1;jettySize=auto;html=1;strokeColor=#663300;" parent="1" source="DxVS8gKgyxI_-FiZyYMo-42" target="DxVS8gKgyxI_-FiZyYMo-43" edge="1">
          <mxGeometry relative="1" as="geometry" />
        </mxCell>
        <mxCell id="DxVS8gKgyxI_-FiZyYMo-42" value="技処理" style="rounded=0;whiteSpace=wrap;html=1;fontStyle=1;strokeColor=#663300;fontColor=#009900;" parent="1" vertex="1">
          <mxGeometry x="197.5" y="680" width="135" height="40" as="geometry" />
        </mxCell>
        <mxCell id="3sC-6djldNPY9OcpTuFr-14" style="edgeStyle=orthogonalEdgeStyle;rounded=0;orthogonalLoop=1;jettySize=auto;html=1;entryX=-0.004;entryY=0.478;entryDx=0;entryDy=0;entryPerimeter=0;" parent="1" source="DxVS8gKgyxI_-FiZyYMo-43" target="3sC-6djldNPY9OcpTuFr-8" edge="1">
          <mxGeometry relative="1" as="geometry">
            <mxPoint x="70" y="300" as="targetPoint" />
            <Array as="points">
              <mxPoint x="170" y="805" />
              <mxPoint x="170" y="153" />
            </Array>
          </mxGeometry>
        </mxCell>
        <mxCell id="DxVS8gKgyxI_-FiZyYMo-43" value="HP判定" style="html=1;whiteSpace=wrap;aspect=fixed;shape=isoRectangle;fontStyle=1;strokeColor=#663300;fontColor=#009900;" parent="1" vertex="1">
          <mxGeometry x="190" y="760" width="150" height="90" as="geometry" />
        </mxCell>
        <mxCell id="3sC-6djldNPY9OcpTuFr-7" style="edgeStyle=orthogonalEdgeStyle;rounded=0;orthogonalLoop=1;jettySize=auto;html=1;strokeColor=#663300;" parent="1" source="3sC-6djldNPY9OcpTuFr-3" target="DxVS8gKgyxI_-FiZyYMo-3" edge="1">
          <mxGeometry relative="1" as="geometry" />
        </mxCell>
        <mxCell id="3sC-6djldNPY9OcpTuFr-3" value="ポケモン画像・ポケモン名・レベル・HPバー" style="rounded=0;whiteSpace=wrap;html=1;fontStyle=1;strokeColor=#663300;fontColor=#009900;" parent="1" vertex="1">
          <mxGeometry x="137" y="-80" width="255" height="40" as="geometry" />
        </mxCell>
        <mxCell id="3sC-6djldNPY9OcpTuFr-8" value="コマンド選択" style="html=1;whiteSpace=wrap;aspect=fixed;shape=isoRectangle;fontStyle=1;strokeColor=#663300;fontColor=#009900;" parent="1" vertex="1">
          <mxGeometry x="190" y="110" width="150" height="90" as="geometry" />
        </mxCell>
        <mxCell id="3sC-6djldNPY9OcpTuFr-11" style="edgeStyle=orthogonalEdgeStyle;rounded=0;orthogonalLoop=1;jettySize=auto;html=1;" parent="1" source="3sC-6djldNPY9OcpTuFr-9" target="DxVS8gKgyxI_-FiZyYMo-13" edge="1">
          <mxGeometry relative="1" as="geometry" />
        </mxCell>
        <mxCell id="3sC-6djldNPY9OcpTuFr-9" value="技選択" style="html=1;whiteSpace=wrap;aspect=fixed;shape=isoRectangle;fontStyle=1;strokeColor=#663300;fontColor=#009900;" parent="1" vertex="1">
          <mxGeometry x="190" y="240" width="150" height="90" as="geometry" />
        </mxCell>
        <mxCell id="3sC-6djldNPY9OcpTuFr-13" style="edgeStyle=orthogonalEdgeStyle;rounded=0;orthogonalLoop=1;jettySize=auto;html=1;entryX=0.5;entryY=0.111;entryDx=0;entryDy=0;entryPerimeter=0;" parent="1" source="3sC-6djldNPY9OcpTuFr-8" target="3sC-6djldNPY9OcpTuFr-9" edge="1">
          <mxGeometry relative="1" as="geometry" />
        </mxCell>
      </root>
    </mxGraphModel>
  </diagram>
</mxfile>
